# xmcd CD database file
#
# Track frame offsets:
#	150
#	27150
#	44662
#
# Disc length: 827 seconds
#
# Revision: 1
# Processed by: cddbd v1.5.1PL0 Copyright (c) Steve Scherf et al.
# Submitted via: CDex 1.51
#
DISCID=20033903
DTITLE=Orange Deluxe - Jupiters Eye
DYEAR=1996
DGENRE=Rock
TTITLE0=Jupiter's Eye
TTITLE1=Brand New Stone-Age Man
TTITLE2=Swoon
EXTD=YEAR: 1996
EXTT0=
EXTT1=
EXTT2=
PLAYORDER=
